<?xml version="1.0" encoding="utf-8"?>
<!-- Generator: Adobe Illustrator 18.1.1, SVG Export Plug-In . SVG Version: 6.00 Build 0)  -->
<!DOCTYPE svg PUBLIC "-//W3C//DTD SVG 1.1//EN" "http://www.w3.org/Graphics/SVG/1.1/DTD/svg11.dtd">
<svg version="1.1" id="Layer_1" xmlns="http://www.w3.org/2000/svg" xmlns:xlink="http://www.w3.org/1999/xlink" x="0px" y="0px"
	 viewBox="0 0 88 88" enable-background="new 0 0 88 88" xml:space="preserve">
<path d="M28,0H12C5.4,0,0,5.4,0,12v16c0,6.6,5.4,12,12,12h16c6.6,0,12-5.4,12-12V12C40,5.4,34.6,0,28,0z M32,28c0,2.2-1.8,4-4,4H12
	c-2.2,0-4-1.8-4-4V12c0-2.2,1.8-4,4-4h16c2.2,0,4,1.8,4,4V28z M76,0H60c-6.6,0-12,5.4-12,12v16c0,6.6,5.4,12,12,12h16
	c6.6,0,12-5.4,12-12V12C88,5.4,82.6,0,76,0z M80,28c0,2.2-1.8,4-4,4H60c-2.2,0-4-1.8-4-4V12c0-2.2,1.8-4,4-4h16c2.2,0,4,1.8,4,4V28z
	 M76,48H60c-6.6,0-12,5.4-12,12v16c0,6.6,5.4,12,12,12h16c6.6,0,12-5.4,12-12V60C88,53.4,82.6,48,76,48z M80,76c0,2.2-1.8,4-4,4H60
	c-2.2,0-4-1.8-4-4V60c0-2.2,1.8-4,4-4h16c2.2,0,4,1.8,4,4V76z M28,48H12C5.4,48,0,53.4,0,60v16c0,6.6,5.4,12,12,12h16
	c6.6,0,12-5.4,12-12V60C40,53.4,34.6,48,28,48z M32,76c0,2.2-1.8,4-4,4H12c-2.2,0-4-1.8-4-4V60c0-2.2,1.8-4,4-4h16c2.2,0,4,1.8,4,4
	V76z"/>
</svg>
