<?xml version="1.0" encoding="utf-8"?>
<!-- Generator: Adobe Illustrator 18.1.1, SVG Export Plug-In . SVG Version: 6.00 Build 0)  -->
<!DOCTYPE svg PUBLIC "-//W3C//DTD SVG 1.1//EN" "http://www.w3.org/Graphics/SVG/1.1/DTD/svg11.dtd">
<svg version="1.1" id="Layer_1" xmlns="http://www.w3.org/2000/svg" xmlns:xlink="http://www.w3.org/1999/xlink" x="0px" y="0px"
	 viewBox="-387.4 686.6 43.3 37.8" enable-background="new -387.4 686.6 43.3 37.8" xml:space="preserve">
<path d="M-372.5,717.3h26.3c1.2,0,2.2,1,2.2,2.2l0,0c0,1.2-1,2.2-2.2,2.2h-26.3c-1.2,0-2.2-1-2.2-2.2l0,0
	C-374.6,718.3-373.7,717.3-372.5,717.3z"/>
<path d="M-372.5,703.3h26.3c1.2,0,2.2,1,2.2,2.2l0,0c0,1.2-1,2.2-2.2,2.2h-26.3c-1.2,0-2.2-1-2.2-2.2l0,0
	C-374.6,704.3-373.7,703.3-372.5,703.3z"/>
<path d="M-372.5,689.2h26.3c1.2,0,2.2,1,2.2,2.2l0,0c0,1.2-1,2.2-2.2,2.2h-26.3c-1.2,0-2.2-1-2.2-2.2l0,0
	C-374.6,690.2-373.7,689.2-372.5,689.2z"/>
<circle cx="-381.5" cy="691.4" r="3"/>
<circle cx="-381.5" cy="705.4" r="3"/>
<circle cx="-381.5" cy="719.5" r="3"/>
</svg>
