<?xml version="1.0" encoding="utf-8"?>
<!-- Generator: Adobe Illustrator 18.1.1, SVG Export Plug-In . SVG Version: 6.00 Build 0)  -->
<!DOCTYPE svg PUBLIC "-//W3C//DTD SVG 1.1//EN" "http://www.w3.org/Graphics/SVG/1.1/DTD/svg11.dtd">
<svg version="1.1" id="Layer_1" xmlns="http://www.w3.org/2000/svg" xmlns:xlink="http://www.w3.org/1999/xlink" x="0px" y="0px"
	 viewBox="-417 671 100 100" enable-background="new -417 671 100 100" xml:space="preserve">
<path id="Phone" d="M-329.3,746l-0.5-0.9c-1.3-3.1-17.7-7.9-19-8l-1,0.1c-2,0.4-4.2,2.2-8.5,5.9c-0.9,0.8-2,0.9-3,0.4
	c-5.6-3.1-12.4-9.4-15.9-13.2c-3.7-4.1-8.2-10.8-10.3-16.2c-0.4-1,0-2.2,0.8-2.9c4.8-4.4,6.9-6.5,7.1-8.7c0.1-1.3-2.8-18.1-5.7-19.8
	l-0.9-0.6c-1.9-1.2-4.7-3-7.9-2.4c-0.8,0.2-1.5,0.5-2.2,0.9c-2.1,1.3-7.3,4.9-9.7,9.6c-1.4,2.9-2.1,29.6,17.9,52.1
	c19.8,22.3,44.2,23.3,47.8,22.5h0.1l0.3-0.1c4.9-1.8,9.1-6.5,10.7-8.5C-326.1,752.6-328.1,748.4-329.3,746z"/>
</svg>
